<svg xmlns="http://www.w3.org/2000/svg" viewBox="0 0 500 500">
<g id="freepik--background-complete--inject-2">
<path d="M60.29,120.18l-14.61,70.5c6.5,6.6,13.39,12.83,24.51,15.18l53.5,9.4,12.57-82.87Z" style="fill:#fafafa"></path>
<polygon points="57.24 115.83 42.63 186.33 67.14 201.51 120.64 210.91 136.44 131.36 57.24 115.83" style="fill:#f5f5f5"></polygon>
<path d="M52.6,182.57l-10,3.76s3.6,5.87,8.85,9a44.77,44.77,0,0,0,15.66,6.13S55.46,195.7,52.6,182.57Z" style="fill:#e0e0e0"></path><polygon points="49.1 130.96 85.67 119.62 83.34 111.92 46.17 122.73 49.1 130.96" style="fill:#ebebeb"></polygon><polygon points="142.77 150.38 119.06 120.31 112.72 125.25 136.13 156.07 142.77 150.38" style="fill:#ebebeb"></polygon><path d="M122.68,154.78c0,.14-13.53-2.38-30.16-5.63s-30.09-6-30.06-6.15,13.53,2.38,30.16,5.63S122.71,154.64,122.68,154.78Z" style="fill:#e0e0e0"></path><path d="M120.29,165.59c0,.14-13.53-2.38-30.16-5.64S60,154,60.07,153.81s13.53,2.38,30.16,5.63S120.32,165.45,120.29,165.59Z" style="fill:#e0e0e0"></path><path d="M118.74,175.28c0,.14-13.53-2.38-30.15-5.63s-30.09-6-30.07-6.15,13.53,2.38,30.17,5.64S118.77,175.14,118.74,175.28Z" style="fill:#e0e0e0"></path><path d="M116.87,184.54c0,.14-13.53-2.38-30.16-5.64s-30.09-6-30.06-6.14,13.53,2.38,30.16,5.63S116.89,184.4,116.87,184.54Z" style="fill:#e0e0e0"></path><path d="M402.63,87.76l-18.91,46.09c-6.27,1.27-12.64,2.18-19.93-.77l-34.33-15.31,24.87-52.41Z" style="fill:#fafafa"></path><polygon points="406.06 86.44 387.16 132.54 367.22 131.76 332.89 116.45 354.62 64.7 406.06 86.44" style="fill:#f5f5f5"></polygon><path d="M382.89,126.52l4.27,6a21.55,21.55,0,0,1-8.58,1.77,31.12,31.12,0,0,1-11.36-2.55S376.17,133,382.89,126.52Z" style="fill:#e0e0e0"></path><polygon points="404.87 98.27 388.28 77.62 392.6 74.1 409.74 94.68 404.87 98.27" style="fill:#ebebeb"></polygon><polygon points="343.63 73.17 368.86 65.09 370.59 70.38 345.23 79 343.63 73.17" style="fill:#ebebeb"></polygon><path d="M353.45,83.46c.05-.13,8.85,3.47,19.65,8s19.51,8.38,19.45,8.51-8.85-3.46-19.65-8S353.39,83.59,353.45,83.46Z" style="fill:#e0e0e0"></path><path d="M350.64,90.59c.05-.14,8.85,3.46,19.65,8s19.5,8.38,19.45,8.51-8.86-3.46-19.65-8S350.58,90.72,350.64,90.59Z" style="fill:#e0e0e0"></path><path d="M347.77,96.75c.06-.14,8.86,3.46,19.65,8s19.51,8.38,19.45,8.51-8.85-3.46-19.65-8S347.72,96.88,347.77,96.75Z" style="fill:#e0e0e0"></path><path d="M345.27,102.78c.05-.13,8.85,3.47,19.65,8s19.5,8.38,19.45,8.51-8.86-3.46-19.66-8S345.21,102.91,345.27,102.78Z" style="fill:#e0e0e0"></path>
</g>
<g id="freepik--Note--inject-2"><path d="M170.77,77.79l24.13,73.56c9.58,2.67,19.34,4.79,31,1l54.92-19.87-32.65-84Z" style="fill:#e0e0e0"></path>
<polygon points="165.6 75.37 189.73 148.92 220.7 149.96 275.62 130.08 247.76 47.45 165.6 75.37" style="fill:#8abed3"></polygon>
<path d="M197,140.08l-7.28,8.84s6.5,3.55,13.09,3.7A48.18,48.18,0,0,0,220.7,150S206.7,150.79,197,140.08Z" style="fill:#8abed3"></path>
<path d="M197,140.08c-2.21,4.47-4.45,9.72-7.28,8.84,0,0,6.5,3.55,13.09,3.7A48.18,48.18,0,0,0,220.7,150S206.7,150.79,197,140.08Z" style="opacity:0.30000000000000004"></path><polygon points="166.12 93.83 194.14 63.69 187.85 57.76 158.98 87.73 166.12 93.83" style="fill:#e0e0e0"></polygon><polygon points="263.84 61.8 225.65 46.46 222.37 54.46 260.7 70.66 263.84 61.8" style="fill:#e0e0e0"></polygon><path d="M247.47,76.66c0,.13-13.9,5-31.14,10.87S185.06,98.05,185,97.91s13.89-5,31.14-10.87S247.42,76.52,247.47,76.66Z" style="fill:#263238"></path><path d="M251,88c0,.14-13.9,5-31.14,10.88s-31.27,10.51-31.31,10.38,13.89-5,31.14-10.88S251,87.88,251,88Z" style="fill:#263238"></path><path d="M254.77,97.88c0,.13-13.89,5-31.14,10.87s-31.26,10.52-31.31,10.38,13.9-5,31.15-10.87S254.73,97.74,254.77,97.88Z" style="fill:#263238"></path><path d="M258,107.51c0,.14-13.9,5-31.14,10.88s-31.26,10.51-31.31,10.38,13.89-5,31.14-10.88S257.93,107.38,258,107.51Z" style="fill:#263238"></path></g>
</svg>