<svg id="Capa_1" xmlns="http://www.w3.org/2000/svg" viewBox="0 0 501.53 423.29" width="16">
<defs>
<style>.cls-1{fill:none;stroke:#000;stroke-miterlimit:10;stroke-width:18px;}</style>
</defs>
<path class="cls-1" d="M14.23,191v-5.37C14.23,121,62,65.78,127,55.16c42.21-7,86.88,6.73,117.67,37L256,103.2l10.48-11.09A139.17,139.17,0,0,1,385,55.16C450.07,65.78,497.77,121,497.77,185.67V191a137.21,137.21,0,0,1-45,101.36L282.16,448.55a39,39,0,0,1-52.32,0L59.18,292.4A137.35,137.35,0,0,1,14.23,191Z" transform="translate(-5.23 -44.36)"/></svg>